<svg
  className={className}
  viewBox="0 0 70 91"
  fill="none"
  xmlns="http://www.w3.org/2000/svg"
>
  <defs>
    <clipPath id="shape">
      <path
        d="M2.445 76.666L1.582 86.735L2.445 87.742L0 88.892V90.619H2.445L3.452 88.892H6.329L8.199 86.879L9.493 87.742L16.829 87.31L17.98 86.447L19.244 86.226L19.478 85.156L20.281 84.481V77.289H10.995L10.141 77.961L8.966 77.289L2.445 76.666Z"
        fill="black"
      />
      <path
        d="M20.952 77.289V84.769L20.084 85.522L19.691 87.073L20.377 87.358L20.952 86.495L23.925 85.344L24.788 84.194L23.733 82.851L24.788 81.988L25.843 82.324V84.002L25.172 84.961L25.843 85.44L27.761 83.642L27.219 80.812L25.113 80.741L25.088 79.073L24.5 78.536V77.289H20.952Z"
        fill="black"
      />
      <path
        d="M22.391 88.221L21.72 88.892L22.055 89.947L23.35 89.084V88.221H22.391Z"
        fill="black"
      />
      <path
        d="M5.03399 66.262L2.42099 75.979L9.14999 76.666L10.048 77.156L10.713 76.666H25.148V78.057L25.76 78.706L25.783 80.106L27.761 80.166L28.432 83.642H29.199V82.324H30.35L31.501 81.509L32.258 80.262L33.035 81.029L32.651 83.642H34.569L35.049 82.324H36.391L37.925 81.605H39.364V83.139L40.227 82.324V81.413L39.651 80.742L40.227 79.495L39.364 76.666L38.213 75.947H36.391V77.289H37.446L37.734 76.666L38.597 77.289L38.501 78.344L39.172 78.44L38.597 80.07L36.391 80.646L34.282 80.262L33.802 78.248L33.418 77.289L32.258 77.673V76.666L33.035 76.235L32.747 74.952L30.158 72.974L29.295 73.741L28.24 72.111L29.103 70.577L30.542 70.097L30.062 69.234L32.258 68.755L30.829 66.933L29.707 65.015H29.007L27.869 66.262L27.09 65.782L26.754 66.094L26.898 67.125L25.363 67.7H20.281L18.747 67.125L5.03399 66.262Z"
        fill="black"
      />
      <path
        d="M5.03398 34.234V44.686L3.59598 47.275L4.31498 52.837L3.59598 53.316L4.31498 54.851L5.03398 54.083L5.51398 55.33L5.11898 65.628L12.631 66.082L12.463 62.802L13.973 61.795L13.895 60.063L14.695 57.951L14.542 55.351L16.046 53.655L15.873 52.963L17.155 50.564L18.145 47.438L18.582 44.578L20.582 44.841L23.743 40.421L22.316 38.844L23.442 35.688L22.692 34.234H5.03398Z"
        fill="black"
      />
      <path
        d="M27.953 30.398L29.168 55.743L28.442 57.469L30.624 59.724L30.645 61.469L31.309 62.186V63.001L30.59 65.015L29.87 64.392H28.801L27.803 65.487L27.015 64.959L26.051 65.891L26.192 66.781L25.238 67.125L20.395 67.141L18.819 66.459L13.293 66.082L13.11 63.108L14.607 62.106L14.548 60.188L15.343 58.015L15.199 55.618L16.829 53.796L16.637 53.077L17.905 50.711L18.912 47.451L19.254 45.406L20.988 45.625L24.74 40.371L23.254 38.693L24.213 35.72L23.446 34.234L24.836 31.836L24.213 31.309L25.747 30.398L27.042 31.117L27.953 30.398Z"
        fill="black"
      />
      <path
        d="M32.258 62.186L31.309 61.179V59.405L29.343 57.392L29.984 55.892L28.737 30.193L29.631 30.158L30.11 31.261L30.781 30.973V28.864L31.501 27.425L33.323 25.076L35.097 24.309L34.665 23.638L35.097 22.679H35.864L36.391 21.144L35.768 20.857V19.898L36.199 18.124L35.432 17.644L38.309 14.384L38.549 10.884L45.98 0H47.659V2.589L49.337 3.452L51.302 2.253L54.131 1.726L54.323 0.863L56.481 0.959L59.933 4.651L61.179 22.391L60.412 23.925L64.584 25.651V26.946L63.577 26.898L64.584 29.103L64.104 30.158L65.59 32.316L66.645 31.309L68.18 32.268L68.467 34.665H67.077L67.221 35.912L69.234 35.96V37.11L68.371 37.302L67.173 39.268L66.406 38.98L65.207 39.652L63.721 39.268L63.577 40.371L61.707 40.898V39.987L60.7 40.611L60.22 42.48L59.357 42.528L58.446 43.296L57.967 41.617L56.96 43.248L55.474 44.398L54.946 41.474H53.987L53.748 44.974L51.302 43.535L48.953 42.912L49.48 44.446L47.994 47.515L48.665 48.138L46.508 49.864L45.405 48.09L44.542 48.809L44.638 50.248L44.015 51.446L41.521 50.248L41.042 51.782L40.994 53.268L40.179 53.316L39.364 51.542L36.008 53.364L37.11 54.851L36.391 55.282L35.432 55.186L35.097 56.049L35.24 57.248L34.234 58.303H33.466L32.258 62.186Z"
        fill="black"
      />
      <path
        d="M32.795 84.433L32.004 85.153L31.249 86.231H30.386V86.663L31.069 87.166L32.258 86.483L34.737 86.411L35.097 86.231V85.368L34.629 85.117L34.018 85.8L33.73 84.793L32.795 84.433Z"
        fill="black"
      />
      <path
        d="M38.153 86.807L37.326 87.166V87.67H37.973L39.34 88.221L40.383 87.514L39.807 85.8H38.854V86.735L38.153 86.807Z"
        fill="black"
      />
    </clipPath>
  </defs>
</svg>